<svg xmlns="http://www.w3.org/2000/svg" viewBox="0 0 2655.55 1948.11"><defs><style>.cls-1{fill:#d8c9f6;}.cls-2{fill:#fff;}.cls-3{fill:#44189a;}.cls-4{fill:#efefef;}.cls-5{fill:#6426dd;}.cls-6{fill:#fae0b2;}.cls-7{fill:#f8c558;}.cls-8{fill:#7f47dd;}.cls-9{fill:#355389;}.cls-10{fill:#50bfa5;}.cls-11{fill:#fe875e;}.cls-12{fill:#d6d6d6;}</style></defs><g id="Background"><path class="cls-1" d="M714.89,1924.59S251.33,1329.44,261.17,1034.8,1350.1-40.45,1629.43,1.64s359.7,704.08,133.93,1186.22,325.26,133.93,375-156.89,566.33,356.12-114.79,893.62Z"/><path class="cls-2" d="M1604.38,536.75a36,36,0,1,1,36-36A36,36,0,0,1,1604.38,536.75Zm0-59.84a23.88,23.88,0,1,0,23.88,23.88A23.9,23.9,0,0,0,1604.38,476.91Z"/><path class="cls-2" d="M753.65,449.87a36,36,0,1,1,36-36A36,36,0,0,1,753.65,449.87Zm0-59.84a23.88,23.88,0,1,0,23.88,23.87A23.9,23.9,0,0,0,753.65,390Z"/><path class="cls-2" d="M1478.25,72.85a28.44,28.44,0,1,1,28.43-28.44A28.47,28.47,0,0,1,1478.25,72.85Zm0-44.78a16.34,16.34,0,1,0,16.34,16.34A16.36,16.36,0,0,0,1478.25,28.07Z"/><path class="cls-2" d="M2398.61,937.82a36,36,0,1,1,36-36A36,36,0,0,1,2398.61,937.82Zm0-59.84a23.88,23.88,0,1,0,23.87,23.87A23.9,23.9,0,0,0,2398.61,878Z"/><path class="cls-2" d="M2119.55,643.84l-92.61-332.66,264.39-122,9.84,355.06Zm-78.2-326,85.76,308.06,161.76-88.76-9.12-329.35Z"/><path class="cls-2" d="M1888.66,657.21l-1.79-3.23L1716.14,346.73,2005.82,317l89.89,333.41Zm-153-300.33,160,288,184.42-6.09L1996.82,330Z"/><path class="cls-2" d="M2085,651.65l-91.07-332.38,44.49-12.19,91.07,332.38Zm-76.21-323.91,84.68,309,21.16-5.79-84.68-309.06Z"/><path class="cls-2" d="M1756.52,348.47l-9.47-7.52,19.15-24.15,1.54-.59c76.15-29.37,138.81-34.41,177.94-33.48,42.71,1,67.14,9,68.16,9.36l3.06,1,6.66,24.3-11.66,3.19L2007,302.68c-7.65-2.07-29.48-7.14-62.21-7.87-37.67-.84-97.84,4.07-171.15,32.09Z"/><path class="cls-2" d="M2011.9,320.6l-6.66-24.29,2.12-2.44c.7-.81,17.64-20.15,53.87-42.8,33.2-20.76,89.66-48.35,170.15-61.9l1.63-.27,28.79,11-4.32,11.3-25.71-9.84c-77.36,13.26-131.63,39.71-163.61,59.63-27.79,17.31-44,32.8-49.51,38.49l4.91,17.92Z"/><path class="cls-2" d="M1765.41,325.89l-49.6-55.31,20.74,6.32c.29.08,34.51,9.39,137.24-10.91C1983,244.41,2015.66,292.48,2017,294.53l-10.14,6.59,5.07-3.29-5,3.33c-.07-.11-7.44-10.84-26.92-19.06-18.25-7.69-51.07-14.67-103.82-4.24-67.36,13.31-106.13,14.22-125.93,13l24.21,27Z"/><rect class="cls-2" x="2010.24" y="347.69" width="34.51" height="12.09" transform="translate(-21.41 548.3) rotate(-15.32)"/><rect class="cls-2" x="2017.7" y="374.92" width="34.51" height="12.09" transform="translate(-28.34 551.24) rotate(-15.32)"/><rect class="cls-2" x="2078.02" y="593.6" width="34.51" height="12.09" transform="translate(-84.1 590.27) rotate(-15.72)"/><rect class="cls-2" x="2070.37" y="566.42" width="34.51" height="12.09" transform="translate(-77.02 587.2) rotate(-15.72)"/><path class="cls-2" d="M2002,310.23c-8.8-1-17.56-1.65-26.32-2.18s-17.53-.76-26.3-.95c-4.39-.05-8.77-.15-13.16-.13-2.19,0-4.39-.08-6.59,0s-4.39.05-6.59,0-4.4,0-6.6.07l-6.61.05c-4.41,0-8.82.17-13.26,0,4.34-.88,8.71-1.61,13.1-2.27,4.39-.51,8.79-1.14,13.21-1.43s8.85-.62,13.28-.77c2.22-.07,4.43-.16,6.65-.15l6.66,0a240.48,240.48,0,0,1,26.54,2c4.4.58,8.79,1.31,13.13,2.22A105.63,105.63,0,0,1,2002,310.23Z"/><path class="cls-2" d="M1926.46,317.39c-12,.1-24,.69-36,1.45s-23.89,1.88-35.8,3.16c-3,.32-6,.7-8.92,1.05l-4.46.51-4.46.6-8.91,1.15c-3,.47-5.93.9-8.9,1.32l-4.45.63c-1.49.21-3,.49-4.45.71l-8.9,1.39c-5.94.91-11.84,2-17.83,2.85,2.88-.91,5.77-1.76,8.66-2.61l4.35-1.24c1.45-.43,2.91-.82,4.37-1.18,5.86-1.4,11.71-2.94,17.64-4,2.95-.61,5.91-1.2,8.88-1.75l8.94-1.48,4.47-.71,4.49-.59c3-.38,6-.78,9-1.12,12-1.3,24.08-2,36.15-2.17A232,232,0,0,1,1926.46,317.39Z"/><path class="cls-2" d="M2017.38,303a282.31,282.31,0,0,1,22.08-17.89q11.43-8.44,23.41-16.11c8-5.11,16.19-9.88,24.54-14.36a225.28,225.28,0,0,1,25.87-11.85l-24.1,14.92-23.87,15.11-23.85,15.19C2033.5,293.12,2025.52,298.16,2017.38,303Z"/><path class="cls-2" d="M2064.21,287c10.93-7.55,22.22-14.51,33.66-21.23q4.27-2.55,8.62-5t8.67-4.87c5.8-3.22,11.68-6.29,17.54-9.4l8.89-4.49c3-1.49,5.93-3,8.93-4.4,6-2.86,12-5.66,18.09-8.33a366.57,366.57,0,0,1,37.22-14.16q-18,8.55-35.72,17.37-4.41,2.27-8.85,4.46c-3,1.46-5.89,3-8.83,4.51-5.91,3-11.77,6-17.64,9.06l-8.82,4.55-8.79,4.6-17.6,9.16C2087.84,275,2076.09,281.07,2064.21,287Z"/><path class="cls-2" d="M364,1911.45l-9.4-.83c.26-2.94,27.71-296.63,177.78-518.52l7.81,5.28C391.46,1617.28,364.23,1908.53,364,1911.45Z"/><path class="cls-2" d="M318.73,1911.35l-9.41-.64c.34-5,33.3-503-16.75-655.93l9-2.93C352.15,1406.51,320.11,1890.81,318.73,1911.35Z"/><path class="cls-2" d="M258.4,1911.29c-.14-2.53-16-254.84-181.62-357l5-8c169.84,104.74,185.94,361.9,186.08,364.48Z"/><path class="cls-2" d="M407.54,1912.11l-9.19-2.16c.17-.72,17.21-73.14,35.87-144,9.79-37.21,29.78-47.78,45.84-56.27s27.42-14.5,25.68-44.1a391,391,0,0,0-4.87-41.82c-4.47-28-6.51-40.71,19-76.16,14.93-20.76,28.13-27.44,37.78-32.31,12.52-6.32,18.8-9.5,19.81-40.62.28-9,.42-16.52.53-23,.64-36.12.72-40.76,23.89-73.86,6.14-8.77,3.17-18.07-.4-24.34-8.84-15.49-32.91-31.08-56.06-29.3-16.74,1.3-29.25,11.58-36.17,29.73-22.66,59.39-36.52,69.43-61.68,87.67-5.59,4-11.93,8.64-19,14.3-36.07,28.86-47.12,42.5-39.77,93.82,4.53,31.64-12.53,67.48-27.58,99.1-10.42,21.9-20.27,42.58-19.53,55.86,1.88,33.88-11.27,199.76-11.83,206.81l-9.41-.75c.14-1.72,13.67-172.29,11.83-205.53-.88-15.69,9-36.42,20.43-60.44,14.48-30.42,30.88-64.89,26.76-93.71-8-55.72,5.51-72.37,43.21-102.53,7.24-5.79,13.68-10.45,19.35-14.57,23.69-17.17,36.75-26.63,58.4-83.39,8.21-21.49,23.92-34.2,44.26-35.77,24.51-1.9,53,13.06,65,34,7,12.2,6.94,24.42-.06,34.42-21.52,30.74-21.57,33.59-22.19,68.61-.11,6.53-.25,14.12-.54,23.14-1.13,35-9.78,41.06-25,48.74-9.26,4.68-20.79,10.5-34.37,29.4-23.2,32.29-21.59,42.33-17.3,69.17a400.34,400.34,0,0,1,5,42.75c2.1,35.64-13.82,44.07-30.68,53-15.18,8-32.39,17.13-41.13,50.35C424.71,1839.09,407.71,1911.39,407.54,1912.11Z"/><path class="cls-2" d="M230.44,1911.85c-.17-.95-17.07-95.16-52.75-120.14-39.2-27.44-51-48-54.81-95.9-.52-6.52-.9-12.33-1.24-17.52-2.1-32.34-2.48-38.17-24.34-48.36-7.62-3.56-14.73-5.39-21.61-7.15-17.79-4.56-33.15-8.51-37.65-39.94-2.22-15.5-9.19-22-17.26-29.49C10.1,1543.41-2,1532.16.28,1499c1.18-17.09,10.66-23.35,18.4-25.6,31.34-9.11,95.65,32,112.7,55.2,12.73,17.35,22.78,20.93,34.43,25.08,6.52,2.32,13.27,4.72,20.88,9.56,1.8,1.15,3.64,2.29,5.51,3.45,19.55,12.16,43.89,27.28,47.57,62.28l.5,4.78c3.4,32.67,5.45,52.39,25.65,67.37,23.36,17.32,21.42,51.89,19.54,85.32l-.4,7.36c-1.85,35.2,1.43,116.26,1.46,117.08l-9.42.39c0-.82-3.33-82.33-1.46-118l.41-7.39c1.82-32.36,3.53-62.92-15.75-77.21-23.54-17.46-25.87-39.94-29.41-74l-.49-4.76c-3.2-30.42-23.52-43-43.18-55.25-1.89-1.18-3.76-2.35-5.59-3.51-6.71-4.27-12.95-6.49-19-8.64-12-4.27-24.42-8.69-38.86-28.38-15.48-21.11-76-59.38-102.47-51.72-4.57,1.32-10.75,4.55-11.62,17.19-2,28.71,7,37.11,17.51,46.83,8.2,7.62,17.48,16.27,20.18,35.07C51,1606.7,61.17,1609.32,78,1613.65c7,1.78,14.84,3.8,23.25,7.73,26.93,12.56,27.64,23.58,29.77,56.3.34,5.15.71,10.91,1.23,17.38,3.63,45.43,13.61,62.88,50.81,88.93,38.88,27.21,55.93,122.2,56.64,126.23Z"/><path class="cls-2" d="M277.09,1730.68c0-.57-.33-57.61-18.39-105.24-19.3-50.91-22.64-72-11.28-134.54,5.82-32-4-55.14-14.3-79.65-9.22-21.83-18.74-44.4-17.84-74.31.9-29.62,9-41.78,16.09-52.51,8-12,14.29-21.54,7.7-55.93-4.5-23.48,18.43-44.07,42.26-49.67,24.55-5.78,57.55,2.71,69.57,45.71,14.75,52.73,16.29,85.24,17.3,106.75,1,22,1.56,33,13.67,46,16.57,17.74,13.42,38.41,9.78,62.34-2.62,17.12-5.57,36.52-1.47,58.05l-9.26,1.76c-4.41-23.11-1.32-43.36,1.4-61.23,3.41-22.4,6.11-40.08-7.34-54.49-14.47-15.5-15.12-29.22-16.19-51.94-1.06-22.35-2.51-53-17-104.66C331.61,1190.56,305,1183,283.49,1188c-19.59,4.61-38.6,20.72-35.15,38.72,7.3,38.17-.67,50.19-9.11,62.91-6.74,10.16-13.71,20.65-14.52,47.59-.84,27.85,8.27,49.45,17.09,70.35,10.43,24.71,21.22,50.26,14.9,85-10.95,60.22-7.74,80.57,10.81,129.51,18.69,49.28,19,106.17,19,108.57Z"/><path class="cls-2" d="M2331.25,1911.19l-8.92-3.08c4.23-12.22,105.17-299.79,256.56-331.94l2,9.23C2434.67,1616.45,2332.27,1908.24,2331.25,1911.19Z"/><path class="cls-2" d="M2286.05,1911l-9.05-2.66c1.05-3.59,104.67-362.85,51-637.73l9.26-1.8C2391.37,1545.94,2287.11,1907.36,2286.05,1911Z"/><path class="cls-2" d="M2235.5,1910.94c-.56-1.94-56.76-195.46-140.61-225.38-21-7.48-42.3-3.84-63.41,10.82l-5.37-7.75c23.75-16.49,48-20.52,72-12,88.4,31.55,144.17,223.52,146.51,231.68Z"/><path class="cls-2" d="M2200.17,1912.1c-.24-.4-24.65-40.35-45-68.15-7.7-10.5-18.91-12.66-29.75-14.74-15.36-3-32.77-6.32-31.51-36.07l.16-3.78c1.11-25.78,1.91-44.42-5.39-51.46-3.46-3.35-9.16-4.59-18-3.91-13.46,1-25.73-1.16-36.58-3.1-15.75-2.81-29.35-5.23-42.54,2.3-6,3.44-9.8,2.18-11.92.51-3.72-2.94-4.37-8.65-1.94-17,5.78-19.85,34.65-65,82.71-69.89,64.07-6.47,76-3.74,98.37,22.49,9.57,11.23,14.47,18,18.06,23,7,9.65,7.72,10.66,29.85,24.18,30.77,18.8,42.48,36,38,55.81-4.31,18.91,12.16,104.9,18.88,136.43l-9.23,2c-1-4.71-24.49-115.68-18.84-140.48,2.33-10.26.61-24.71-33.7-45.67-22.86-14-24.74-15.89-32.57-26.7-3.49-4.81-8.27-11.42-17.6-22.36-19.17-22.5-26.88-25.65-90.24-19.23-31.34,3.18-55.58,26.89-67.82,48-6.45,11.14-7.93,18.53-7.85,21.39a9.44,9.44,0,0,0,1.19-.6c16.18-9.24,32.06-6.4,48.88-3.39,10.79,1.93,21.95,3.93,34.19,3,11.69-.92,19.72,1.16,25.27,6.52,10.35,10,9.52,29.36,8.26,58.66l-.16,3.76c-.91,21.64,8.42,23.44,23.87,26.42,11.45,2.2,25.69,4.94,35.57,18.42,20.63,28.13,45.25,68.42,45.49,68.82Z"/><path class="cls-2" d="M2250.79,1844.51l-8.93-3c.13-.41,13.88-41.4,19.42-96.73,2.51-25.16-4.64-39.72-11.56-53.81-8.15-16.61-16.58-33.78-7.95-65.59,8.32-30.65,19.44-35.94,28.39-40.19,7.53-3.59,12.52-6,14.39-27.79,1.78-20.74-4.52-28.29-11.18-36.28-8.43-10.1-17.13-20.55-6.7-52.93,7.5-23.29,15.57-33,22.06-40.78,8.43-10.12,13.51-16.22,9.53-52-3.24-29.21-12.67-40.81-20.24-50.13-8.67-10.68-16.16-19.89-8-46.55,12.15-39.73,26.9-74.26,73-60.59,37.46,11.11,52.6,51.54,39.52,105.52-4.65,19.18,4.1,43.53,13.36,69.31,12.09,33.64,25.79,71.77,11.65,106.69a319.23,319.23,0,0,1-17.19,36.41c-7.93,14.56-7.93,14.56-2.32,53,2.15,14.75,4.06,25.34,5.45,33.08,4.35,24.18,4.55,27.25-2.88,56.12l-9.13-2.34c7.12-27.71,6.87-29.09,2.73-52.11-1.41-7.8-3.33-18.48-5.5-33.39-5.9-40.35-5.8-42,3.37-58.84a307.71,307.71,0,0,0,16.73-35.43c12.78-31.59.3-66.35-11.78-100-9.76-27.15-19-52.79-13.66-74.72,12-49.34-.38-84.57-33-94.26-31.37-9.3-45.7,3.38-61.28,54.31-6.69,21.85-1.8,27.87,6.31,37.84,7.91,9.74,18.75,23.08,22.3,55,4.22,38-1.09,46.41-11.66,59.09-6,7.17-13.39,16.09-20.34,37.65-8.84,27.43-2.74,34.74,5,44,7.24,8.68,15.44,18.52,13.33,43.12-2.17,25.33-9.22,30.51-19.74,35.51-7.57,3.59-16.15,7.67-23.33,34.13-7.7,28.38-.74,42.56,7.32,59,7.15,14.57,15.25,31.07,12.47,58.91C2265,1802.16,2250.93,1844.09,2250.79,1844.51Z"/><path class="cls-2" d="M2359.66,1910.65l-9.22-2c14.64-67.62,36.13-87.81,55.09-105.63,10.42-9.8,19.43-18.26,25.79-33.91,3.11-7.66,5.73-14.27,8-20.07,11.41-28.71,15.25-38.38,31.6-58.91,10.23-12.84,18.63-13.68,28.35-14.65,10-1,22.4-2.24,43.85-18.69,21.83-16.74,21.26-28.34,20.83-36.82-.36-7.46-.78-15.9,14.91-19.22,8.2-1.73,18.67-2,28.8-2.17,15.58-.33,33.26-.7,37.46-6.92,1.36-2,1.27-5.1-.27-9.22-3-8.1-9.41-13.86-18.93-17.11-18.1-6.19-45.3-1.93-64.72,10.09-15.33,9.49-26.89,5.58-37.08,2.15-11.88-4-22.14-7.47-40.28,6.91-14.93,11.86-20.43,25.75-25.27,38-6.53,16.51-12.81,32.11-40.13,30.76-19.82-1-24.38,11.81-31.21,36.4-4.71,16.95-10,36.16-24.51,51.88-31.29,34-59.41,167.73-59.68,169.08l-9.24-1.92c1.17-5.6,28.95-137.63,62-173.54,12.93-14.05,17.94-32.1,22.36-48,6.39-23,12.42-44.7,40.76-43.3,20.81,1.09,24.54-8.7,30.9-24.81,5-12.69,11.26-28.5,28.18-41.92,22.15-17.58,36.49-12.73,49.16-8.47,9.79,3.3,17.54,5.93,29.1-1.23,22-13.6,51.86-18.14,72.73-11,12.15,4.15,20.69,12,24.71,22.74,2.67,7.14,2.42,13.14-.75,17.81-6.95,10.25-25.46,10.65-45.08,11.06-9.68.2-19.7.41-27,2-7.83,1.65-7.78,2.7-7.44,9.52.5,10,1.25,25-24.51,44.78-23.58,18.08-38.08,19.53-48.66,20.58-8.82.89-14.15,1.42-21.9,11.15-15.48,19.43-18.89,28-30.22,56.51-2.31,5.83-4.94,12.45-8.06,20.13-7.14,17.57-17.31,27.13-28.08,37.24C2394,1826.77,2373.68,1845.89,2359.66,1910.65Z"/><path class="cls-3" d="M195.14,1904H2400.68a44.14,44.14,0,0,1,44.14,44.14v0a0,0,0,0,1,0,0H151a0,0,0,0,1,0,0v0A44.14,44.14,0,0,1,195.14,1904Z"/><path class="cls-2" d="M399.16,971.71c-.94,0-1.87,0-2.81-.06L144.67,962a71.27,71.27,0,0,1-68.38-73.88l10-260.35a197.11,197.11,0,1,1,393.93,15.18l-10,260.36a71.18,71.18,0,0,1-71.06,68.44ZM283.2,450.3c-98.77,0-181,78.37-184.8,177.9l-10,260.35a59.15,59.15,0,0,0,56.77,61.32l251.67,9.7a59.09,59.09,0,0,0,61.33-56.77l10-260.35a185,185,0,0,0-177.76-192C288,450.34,285.59,450.3,283.2,450.3Z"/><path class="cls-2" d="M399.73,713.16c-1.06,0-2.13,0-3.19-.07l-232.15-8.94a81,81,0,0,1-77.78-84l12.09.46a68.93,68.93,0,0,0,66.15,71.46L397,701a68.86,68.86,0,0,0,71.46-66.16l12.09.47a81,81,0,0,1-80.82,77.84Z"/><path class="cls-2" d="M471.31,875.06l-12.09-.47a48.23,48.23,0,0,0-46.34-50.05L139.51,814a48.24,48.24,0,0,0-50,46.34l-12.09-.46a60.32,60.32,0,0,1,62.61-58l273.37,10.53a60.34,60.34,0,0,1,58,62.61Z"/><path class="cls-2" d="M87.72,905.44l-6-.23a49.53,49.53,0,0,1-47.53-51.34l1.34-34.72a49.47,49.47,0,0,1,51.33-47.53l6.05.24ZM80.3,784a37.4,37.4,0,0,0-32.73,35.66l-1.34,34.71A37.45,37.45,0,0,0,76.12,892.4Z"/><path class="cls-2" d="M465.46,920c-.64,0-1.29,0-1.93,0l-6-.23,5.14-133.58,6.05.23a49.52,49.52,0,0,1,47.52,51.34l-1.33,34.71A49.54,49.54,0,0,1,465.46,920Zm8.77-120.82-4.18,108.45a37.38,37.38,0,0,0,32.73-35.66l1.34-34.72a37.39,37.39,0,0,0-29.89-38.07Z"/><rect class="cls-2" x="239.66" y="665" width="75.99" height="63.51" rx="24.97" transform="translate(27.04 -10.18) rotate(2.21)"/><path class="cls-2" d="M308.2,445.07l1.3-33.6a16.81,16.81,0,0,0-16.12-17.41l-8.1-.31a16.8,16.8,0,0,0-17.41,16.12l-1.29,33.6-12-.46,1.3-33.6a28.84,28.84,0,0,1,29.84-27.63l8.1.31a28.84,28.84,0,0,1,27.63,29.85l-1.29,33.59Z"/><rect class="cls-2" x="271.11" y="693.13" width="12.09" height="277.92" transform="translate(-564.99 1076.99) rotate(-87.79)"/></g><g id="Object"><path class="cls-4" d="M1394.25,1671.6h713.62s-12.46,51.65-12.46,107.79c0,54.54,12.46,107.8,12.46,107.8H1394.25a45.83,45.83,0,0,1-45.83-45.83V1717.48A45.84,45.84,0,0,1,1394.25,1671.6Z"/><path class="cls-5" d="M2117.5,1642.28a14.67,14.67,0,0,1,14.66,14.66,14.68,14.68,0,0,1-14.66,14.66H1394.25a45.84,45.84,0,0,0-45.83,45.88v123.88a45.83,45.83,0,0,0,45.83,45.83H2117.5a14.64,14.64,0,0,1,14.66,14.66,14.68,14.68,0,0,1-14.66,14.66H1394.25a75.15,75.15,0,0,1-75.15-75.15V1717.43a75.15,75.15,0,0,1,75.15-75.15Z"/><path class="cls-6" d="M1441.32,1713.33q63.39-2.83,126.77-3.8c42.26-.78,84.52-1,126.77-1.09,42.26.09,84.52.3,126.78,1.07s84.51,1.92,126.77,3.82q-63.39,2.85-126.77,3.81c-42.26.78-84.52,1-126.78,1.07-42.25-.1-84.51-.3-126.77-1.08S1483.58,1715.22,1441.32,1713.33Z"/><path class="cls-6" d="M1414.89,1779.4c16-2,31.93-3.08,47.9-3.8s31.94-1,47.9-1.09c16,.09,31.94.3,47.9,1.07s31.94,1.78,47.9,3.82c-16,2-31.93,3.1-47.9,3.81s-31.93,1-47.9,1.07c-16-.1-31.93-.3-47.9-1.08S1430.86,1781.42,1414.89,1779.4Z"/><path class="cls-6" d="M1537.12,1847.12c16-2,31.93-3.08,47.9-3.8s31.94-1,47.9-1.08c16,.08,31.94.29,47.9,1.07s31.94,1.78,47.91,3.81c-16,2-31.94,3.1-47.91,3.81s-31.93,1-47.9,1.07c-16-.09-31.93-.3-47.9-1.08S1553.09,1849.14,1537.12,1847.12Z"/><path class="cls-6" d="M1637.94,1807.48q55.33-2.84,110.69-3.8c36.9-.78,73.8-1,110.7-1.09,36.89.09,73.79.3,110.69,1.08q55.35.94,110.69,3.81-55.34,2.85-110.69,3.81c-36.9.78-73.8,1-110.69,1.07-36.9-.1-73.8-.3-110.7-1.08S1674.83,1809.37,1637.94,1807.48Z"/><path class="cls-6" d="M1537.12,1909.89c-17.48-40.81-17.48-89.68,0-130.49h-98.9c-17.48,40.81-17.48,89.68,0,130.49,11.73-11.11,24.75-22.81,39.06-34.79C1495.93,1887.08,1515.88,1898.78,1537.12,1909.89Z"/><rect class="cls-7" x="1392.1" y="1429.2" width="916.73" height="213.08"/><rect class="cls-6" x="1482.53" y="1429.2" width="54.25" height="213.08"/><rect class="cls-6" x="2164.15" y="1429.2" width="54.25" height="213.08" transform="translate(4382.55 3071.48) rotate(180)"/><path class="cls-4" d="M1392.1,1518.4s-69.38,33.45-80.53,123.88l29.74-24.78,10.53,24.78s6.81-76.81,40.26-106.54Z"/><path class="cls-8" d="M1592.22,1316.73s21.06,48.91-.79,109l-82.92-4.55-208-11.34v0a224.26,224.26,0,0,0,6.3-51.46c0-25.51-6.3-51.5-6.3-51.5v0l205,7Z"/><path class="cls-8" d="M1296.19,1409.57l4.35.24,208,11.34,82.92,4.55c21.85-60.06.79-109,.79-109l-86.69-3-205-7-4.93-.15a12.19,12.19,0,0,1,.34-24.38h.53l307.9,11.38s40.66,67.53,0,155L1295,1434a12.22,12.22,0,0,1,.63-24.43Z"/><polygon class="cls-8" points="1296.48 1282.23 2140.24 1271.58 2135.59 1271.77 1604.38 1293.61 1296.48 1282.23"/><path class="cls-8" d="M1614.68,1293.19l520.91-21.42a46,46,0,0,1,47.74,45.69l.35,64.89a45.9,45.9,0,0,1-44.18,46.18l-535.12,20c40.66-87.42,0-155,0-155Z"/><path class="cls-8" d="M1590.67,1358.63c-16.08,1.13-32.1,1.3-48.11,1.13s-32-.78-48-1.57c-16-1-31.92-2.07-47.84-3.73s-31.84-3.55-47.69-6.47c16.08-1.14,32.1-1.32,48.11-1.14s32,.78,48,1.59c16,1,31.92,2.07,47.84,3.74S1574.82,1355.73,1590.67,1358.63Z"/><path class="cls-8" d="M1420.75,1384.25c-17.8,1.15-35.47.48-53.12-.61-17.63-1.28-35.24-3-52.72-6.55,17.8-1.16,35.48-.5,53.12.61C1385.67,1379,1403.27,1380.71,1420.75,1384.25Z"/><path class="cls-8" d="M1449.28,1454.35c-16.24-23.92-14.6-80.72,3-103.66,31.91.93,62.65,4.87,94.56,5.79-17.6,22.94-18.07,76.73-1.82,100.65a353.76,353.76,0,0,1-57.07-26.6C1474,1439.93,1461.33,1448.18,1449.28,1454.35Z"/><path class="cls-9" d="M1649.33,1139.08l15.09,1.34a68.05,68.05,0,0,0-63,72.84l1.5,20.79a68.06,68.06,0,0,0,54.87,61.83l-242.41-19.09a73.16,73.16,0,0,1-65.79-80.27l1.13-11.17a73.09,73.09,0,0,1,79.14-65.47h0Z"/><polygon class="cls-3" points="2232.93 1126.65 1664.42 1140.42 1649.33 1139.08 1429.94 1119.88 1429.89 1119.88 1427.26 1119.65 2232.93 1126.65"/><path class="cls-5" d="M2216.61,1149.58l-550.93,15.25a43.52,43.52,0,0,0-31.29,17.33c-6.57,8.8-9.28,19.91-8.46,30.92l1.44,19.17a43.92,43.92,0,0,0,42.81,40.5c1.27,0,2.59-.06,3.86-.14l.59,0,542.89-13.12,13.49-.34a11.23,11.23,0,0,1,11.47,11.4l0,2a11.21,11.21,0,0,1-10.91,11L1675.84,1297a67,67,0,0,1-18-1.09,68.06,68.06,0,0,1-54.87-61.83l-1.5-20.79a68.05,68.05,0,0,1,63-72.84l568.5-13.77a11.22,11.22,0,0,1,.61,22.44Z"/><path class="cls-4" d="M2217.52,1259.45l-542.89,13.12-.59,0c-1.27.08-2.59.16-3.86.14a43.92,43.92,0,0,1-42.81-40.5l-1.44-19.17c-.82-11,1.89-22.12,8.46-30.92a43.52,43.52,0,0,1,31.29-17.33l550.93-15.25c-.21,1-7.13,33.76-7.44,54.82S2217.52,1259.45,2217.52,1259.45Z"/><path class="cls-6" d="M1673.65,1196.65c15.89-2.68,31.83-4.39,47.78-5.76s31.91-2.3,47.89-3.05c16-.57,32-1,48-.9s32,.47,48.1,1.84c-15.9,2.69-31.83,4.41-47.78,5.78s-31.92,2.29-47.89,3c-16,.55-32,1-48,.88S1689.71,1198,1673.65,1196.65Z"/><path class="cls-6" d="M1805.14,1241.14c15.89-2.68,31.83-4.39,47.78-5.76s31.91-2.3,47.89-3.06c16-.57,32-1,48-.89s32,.46,48.09,1.84c-15.9,2.69-31.83,4.41-47.78,5.78s-31.92,2.29-47.89,3c-16,.56-32,1-48,.89S1821.2,1242.5,1805.14,1241.14Z"/><path class="cls-6" d="M1829.29,1324.08c18.91-29.63,20.19-102.78,2.14-133-34.87-.5-65.86,3.93-100.72,3.43,18.06,30.17,12.9,98.38-6,128a359,359,0,0,0,63.59-30.9C1803.05,1304.4,1816.45,1315.58,1829.29,1324.08Z"/><path class="cls-6" d="M1945.88,1212.34c21.88-2.68,43.79-4.4,65.71-5.79s43.86-2.31,65.79-3.07c21.95-.58,43.89-1,65.86-.92s43.94.46,65.94,1.83c-21.88,2.69-43.79,4.42-65.71,5.8s-43.85,2.31-65.79,3.06c-21.95.56-43.89,1-65.86.9S1967.89,1213.7,1945.88,1212.34Z"/><polygon class="cls-7" points="1636.24 696.33 1637.16 1541.49 1577.69 1482.02 1577.69 637.72 1600.92 660.94 1636.24 696.33"/><path class="cls-7" d="M1577.69,1482l59.47,59.47c-307.6-51.55-557.05,18.38-557.05,18.38H960.72c-177-79.61-549.07-17.53-549.07-17.53L472,1482s371.52-62.14,552.86,24.14C1206.17,1419.88,1577.69,1482,1577.69,1482Z"/><path class="cls-4" d="M1577.69,637.71V1482s-371.52-62.14-552.86,24.14V735S1241.57,566.93,1577.69,637.71Z"/><path class="cls-4" d="M1024.83,735v771.17C843.49,1419.88,472,1482,472,1482V637.71C808.09,566.93,1024.83,735,1024.83,735Z"/><path class="cls-3" d="M1710.37,660.94v929.88s-380.16-66.4-630.26,0H951.82c-260.89-79.62-612.53,0-612.53,0V660.94H448.74l-40.89,40.89,3.8,840.51s372.11-62.08,549.07,17.53h119.39s249.45-69.93,557.05-18.38l-.92-845.16-35.32-35.39Z"/><polygon class="cls-7" points="471.97 637.72 471.97 1482.02 411.65 1542.34 407.86 701.83 448.74 660.94 471.97 637.72"/><path class="cls-6" d="M635.34,1496.52c21-3.44,42.27-4.9,63.54-5.59a632.28,632.28,0,0,1,63.83,1.16c10.64.62,21.23,1.8,31.82,2.83,10.55,1.52,21.15,2.53,31.61,4.63A504.72,504.72,0,0,1,888.27,1514c-10.55-1.46-20.88-3.8-31.42-5.07-10.46-1.67-20.92-3.23-31.44-4.37-21-2.55-42-4.63-63.13-5.92-21.08-1.53-42.21-2.25-63.37-2.67S656.58,1495.77,635.34,1496.52Z"/><path class="cls-6" d="M1024.38,1528.9c-8.44-3.06-16.91-5.92-25.51-8.4-8.52-2.7-17.12-5.12-25.76-7.38-17.28-4.49-34.63-8.65-52.09-12.31s-35-6.89-52.64-9.94-35.34-5.5-53.09-8.41c9,.12,18,.55,26.94,1,8.94.82,17.92,1.4,26.85,2.47,17.89,1.89,35.64,4.94,53.29,8.52a511.38,511.38,0,0,1,52.17,13.91C991.61,1514,1008.56,1520.3,1024.38,1528.9Z"/><path class="cls-6" d="M1607.41,1515.31l-55.3-5.14-55.23-4.91-110.61-9.21c9.26-.47,18.54-.66,27.81-.81,9.27,0,18.55.11,27.82.35,18.55.37,37.06,1.64,55.54,3.16s36.92,3.66,55.26,6.44S1589.35,1511,1607.41,1515.31Z"/><path class="cls-6" d="M1395.1,1479.72q-31.85-1.12-63.57-.58c-21.15.42-42.29,1.14-63.37,2.67-21.09,1.29-42.13,3.37-63.12,5.92-10.52,1.14-21,2.71-31.44,4.37-10.54,1.27-20.87,3.61-31.42,5.07a504.72,504.72,0,0,1,62.13-14.42c10.45-2.1,21.06-3.11,31.6-4.63,10.6-1,21.19-2.21,31.82-2.83a632.42,632.42,0,0,1,63.84-1.16C1352.83,1474.82,1374.11,1476.29,1395.1,1479.72Z"/><path class="cls-6" d="M1020.12,1552.12c15.82-8.6,32.77-14.91,49.84-20.58a511.38,511.38,0,0,1,52.17-13.91c17.65-3.58,35.4-6.63,53.29-8.52,8.93-1.07,17.91-1.65,26.85-2.47,9-.41,18-.84,26.94-1-17.75,2.91-35.47,5.35-53.09,8.41s-35.18,6.25-52.64,9.94-34.81,7.82-52.09,12.31c-8.64,2.26-17.24,4.68-25.76,7.38C1037,1546.2,1028.56,1549.06,1020.12,1552.12Z"/><path class="cls-6" d="M452.08,1506.15c18.05-4.32,36.36-7.4,54.7-10.12s36.79-4.79,55.26-6.45c18.48-1.51,37-2.79,55.54-3.15,9.27-.24,18.55-.32,27.82-.36,9.27.16,18.55.35,27.81.81l-110.6,9.22-55.23,4.9Z"/><path class="cls-10" d="M712.16,1598.05a133,133,0,0,0,5.32-106.51l84,4.2a133,133,0,0,1-5.31,106.5c-9.51-9.56-20.1-19.66-31.77-30C748.09,1581.18,730.66,1589.89,712.16,1598.05Z"/><rect class="cls-3" x="960.72" y="1559.87" width="119.39" height="30.94"/><path class="cls-7" d="M1024.83,735c4.06,64.27,6.18,128.53,7.63,192.8.9,32.13,1.1,64.26,1.64,96.39l.54,96.4-.52,96.39c-.55,32.14-.72,64.27-1.63,96.4-1.44,64.27-3.57,128.53-7.66,192.79-4.08-64.26-6.22-128.52-7.66-192.79-.91-32.13-1.08-64.26-1.63-96.4l-.52-96.39.54-96.4c.54-32.13.74-64.26,1.64-96.39C1018.64,863.52,1020.77,799.26,1024.83,735Z"/><path class="cls-7" d="M1108.46,440.35s-.48-21.79,13.63-46.49,83.55-75.59,91.79-193.33C1222,85.13,1145.68,21.43,1030,20.32v0c-1.2,0-2.36,0-3.54,0s-2.34,0-3.53,0v0C907.18,21.43,830.9,85.13,839,200.53c8.24,117.74,77.66,168.62,91.79,193.33s13.63,46.49,13.63,46.49Z"/><path class="cls-2" d="M1030,13.84c12,.57,23.91,1.07,35.79,2.93a162.78,162.78,0,0,1,17.72,3.15l8.81,1.87,8.66,2.59,8.64,2.6c2.85,1,5.62,2.22,8.43,3.31a120.38,120.38,0,0,1,16.49,7.47,114.59,114.59,0,0,1,15.67,9.14l7.55,5.07c2.45,1.79,4.67,3.87,7,5.79l6.94,5.9,6.23,6.65c2,2.25,4.2,4.38,6.14,6.73l5.37,7.36c3.8,4.75,6.71,10.08,9.6,15.4,3.21,5.18,5.31,10.86,7.61,16.45,2.55,5.51,4,11.39,5.59,17.18,1.88,5.75,2.72,11.71,3.68,17.64.45,3,1,5.9,1.37,8.89l.56,9a129.22,129.22,0,0,1,.39,17.86c-.37,5.94-.14,11.51-1,17.77l-2,17.67L1212,239.8c-1.15,5.81-2.9,11.5-4.33,17.25a269.68,269.68,0,0,1-12,33.46A277.92,277.92,0,0,1,1179.34,322a310.37,310.37,0,0,1-20.25,29c-7.26,9.29-15,18.16-22.75,26.94a169.71,169.71,0,0,0-11,13.47,50.93,50.93,0,0,0-4.38,7.44,66.93,66.93,0,0,0-3.75,7.83c-4.48,10.63-7.57,22.07-8,33.63h-1.62c.14-11.9,3-23.55,7.35-34.56a67.63,67.63,0,0,1,3.66-8.1,53.92,53.92,0,0,1,4.34-7.79,172.68,172.68,0,0,1,10.88-14c7.57-9,15-17.94,22-27.28a305.29,305.29,0,0,0,19.3-29,273.38,273.38,0,0,0,15.28-31.24,267.77,267.77,0,0,0,10.94-33c1.25-5.66,2.85-11.23,3.84-16.93l2.82-17.13,1.61-17.28c.65-5.39.32-11.59.53-17.34a119.58,119.58,0,0,0-.68-17.24l-.66-8.49c-.37-2.83-1-5.62-1.47-8.44-1-5.63-1.89-11.29-3.78-16.68-1.66-5.44-3-11-5.55-16.1-2.25-5.21-4.29-10.52-7.38-15.29-2.79-4.92-5.57-9.85-9.21-14.2l-5.09-6.76c-1.84-2.14-3.89-4.09-5.82-6.15l-5.89-6.09-6.56-5.35c-2.21-1.76-4.3-3.67-6.61-5.29l-7.14-4.6a104.94,104.94,0,0,0-14.79-8.3A111.86,111.86,0,0,0,1114,41c-2.67-1-5.27-2.11-8-3l-8.23-2.3-8.22-2.32-8.41-1.62A152.83,152.83,0,0,0,1064.19,29c-11.34-1.58-22.82-1.85-34.29-2.21l-6.36-.21,0-6.26v0l6.41,6.47-7,.07,6.5-6.54v0l.07,6.19-6.55.35c-11.46.59-22.91,1.09-34.19,2.89a151.63,151.63,0,0,0-16.8,3l-8.32,1.79L955.53,37l-8.11,2.45c-2.67.92-5.23,2.09-7.86,3.12a108.88,108.88,0,0,0-15.29,7,101.71,101.71,0,0,0-14.41,8.47L903,62.72c-2.24,1.63-4.24,3.57-6.39,5.32l-6.35,5.33-5.65,6c-1.86,2-3.84,4-5.59,6.09l-4.87,6.68a88.23,88.23,0,0,0-8.74,14c-3,4.68-4.85,9.89-7,15-2.43,5-3.75,10.4-5.34,15.72-1.83,5.25-2.65,10.78-3.62,16.29-.45,2.75-1.06,5.48-1.41,8.26l-.62,8.41a124.79,124.79,0,0,0-.6,16.87c.18,5.57-.19,11.48.43,16.82L848.71,221l2.69,16.68c.93,5.56,2.49,11.1,3.7,16.67a258.59,258.59,0,0,0,10.64,32.53,310.05,310.05,0,0,0,14.72,31A301.53,301.53,0,0,0,899.09,347c6.76,9.41,14.07,18.42,21.46,27.56A172,172,0,0,1,931.17,389c.81,1.38,1.62,2.51,2.4,4.08l1.85,4a68.34,68.34,0,0,1,3.45,8.23c4.18,11.36,6.65,23.08,6.34,35.07l-1.62,0c-.86-11.47-4.37-22.85-9-33.13a65.92,65.92,0,0,0-3.94-7.7l-2.15-3.84c-.61-1-1.58-2.21-2.34-3.31a165.89,165.89,0,0,0-11.22-13c-7.9-8.6-15.81-17.43-23.28-26.67a312.09,312.09,0,0,1-20.91-29c-3.06-5.13-6.17-10.27-9-15.53-2.64-5.38-5.55-10.66-7.83-16.21A273.83,273.83,0,0,1,841.61,258c-1.47-5.83-3.27-11.54-4.48-17.5l-3.42-17.94-2.11-17.46c-.9-6.28-.69-12.16-1.08-18.28a124.86,124.86,0,0,1,.46-18.23l.6-9.13c.35-3,1-6.05,1.44-9.07,1-6,1.89-12.13,3.84-18,1.71-5.92,3.16-11.93,5.8-17.57,2.35-5.73,4.59-11.52,8-16.77a105.22,105.22,0,0,1,10.07-15.64l5.6-7.45c2-2.35,4.24-4.52,6.36-6.78l6.47-6.69,7.15-5.91c2.41-1.93,4.73-4,7.25-5.76l7.77-5a114.61,114.61,0,0,1,16-9,123.25,123.25,0,0,1,16.81-7.24c2.86-1.05,5.67-2.25,8.56-3.17L951.46,23l8.76-2.44,8.89-1.72A169.25,169.25,0,0,1,987,16c11.95-1.63,23.93-1.9,35.89-2.23l-6.47,6.54v0l.07-6.61,6.43.07,7.16.06,6.46.07Z"/><path class="cls-11" d="M968.77,440.35c-.4-1-38.94-94.32-52.42-153.59-4.87-21.45,3.45-30.62,8.85-34.17,9.74-6.4,24.77-4.51,37.42,4.69.84.62,1.67,1.28,2.49,2a33.9,33.9,0,0,1,8.56-11.36c5.36-4.36,14.51-7.81,27.75.64a86.82,86.82,0,0,1,17.25,14.29c4.63-7.25,10.12-12.8,16.36-15.23,6.08-2.38,15.61-2.86,26.43,8.35a105.14,105.14,0,0,1,7.71,8.88c7.65-6,16.45-7.53,25.85-4.51,5.64,1.83,10,5.84,12.93,11.93,19.06,39.44-25.57,162.84-27.56,168.14h-9.91c.47-1.27,47.7-128.27,30.15-164.6-2-4.07-4.62-6.6-8.1-7.72a19,19,0,0,0-18.65,3.43c14.6,22.88,11.53,42.2,9.08,50.45-4,13.4-13.22,23.57-23.51,25.91-4,.9-7.57-.72-9.94-4.45-8-12.42-2.82-51.37,12.5-71.24.43-.55.87-1.1,1.31-1.62a98.14,98.14,0,0,0-7.7-8.94c-6.27-6.5-12-8.62-17.63-6.43-5,1.93-9.68,7.22-13.81,14.39,17.22,23.85,14.38,51.27,6.28,66.32-5.66,10.49-13.73,15-21,11.73-5.66-2.53-8.36-10.63-8-24.05.37-15.56,5-36.88,13-53.2a76.68,76.68,0,0,0-17.42-15c-9.32-6-16.26-5.06-21.85,2.79a37.83,37.83,0,0,0-3.91,7.15c11.45,13.24,18.81,34.58,11.09,62.29-4,14.4-8,20.65-13.34,20.9-3.68.13-6.57-2.47-8.64-7.87-5-13.17-6.68-49.08,1.46-73.41a42.42,42.42,0,0,0-4-3.36c-9.92-7.23-21.25-9-28.16-4.48-6.29,4.14-8.19,13.22-5.39,25.58,13.32,58.6,53.58,154.44,54,155.38ZM1020,277.94c-6,13.82-10.07,31.35-10.43,45.81-.29,12.09,2.29,16,3.22,16.42,3,1.3,7.19-2,10.53-8.15C1029.92,319.74,1032.37,297.92,1020,277.94Zm48.11-.34c-13.44,17.94-17.34,52.66-11.74,61.41.65,1,1,1,1.29.91,6.13-1.4,13.92-8.22,17.53-20.32C1077.21,312.74,1079.69,296.91,1068.09,277.6Zm-99.9-3.08c-6.34,24.2-3.78,58.53.63,65.23,1-1.35,3.11-5,5.72-14.33C981.37,300.89,975.21,284.43,968.19,274.52Z"/><path class="cls-2" d="M945.59,75.33c-8.06-8.34-28.34-1.84-45.3,14.53s-24.18,36.42-16.12,44.76,28.33,1.85,45.29-14.53S953.65,83.68,945.59,75.33Z"/><path class="cls-4" d="M1134.58,452.55c0,6.74-9.25,12.2-20.66,12.2H947.06c-11.41,0-20.65-5.46-20.65-12.2h0c0-6.73,9.24-12.2,20.65-12.2h166.86c11.41,0,20.66,5.47,20.66,12.2Z"/><path class="cls-12" d="M1134.58,477c0,6.73-9.25,12.19-20.66,12.19H947.06c-11.41,0-20.65-5.46-20.65-12.19h0c0-6.74,9.24-12.2,20.65-12.2h166.86c11.41,0,20.66,5.46,20.66,12.2Z"/><path class="cls-4" d="M1134.58,501.34c0,6.73-9.25,12.19-20.66,12.19H947.06c-11.41,0-20.65-5.46-20.65-12.19h0c0-6.74,9.24-12.2,20.65-12.2h166.86c11.41,0,20.66,5.46,20.66,12.2Z"/><path class="cls-12" d="M1134.58,525.73c0,6.73-9.25,12.2-20.66,12.2H947.06c-11.41,0-20.65-5.47-20.65-12.2h0c0-6.73,9.24-12.2,20.65-12.2h166.86c11.41,0,20.66,5.47,20.66,12.2Z"/><polygon class="cls-4" points="1030.5 537.92 942.36 537.92 942.36 548.75 976.35 561.92 1030.5 561.92 1084.64 561.92 1118.63 548.75 1118.63 537.92 1030.5 537.92"/></g></svg>